<svg id="Layer_1" data-name="Layer 1" xmlns="http://www.w3.org/2000/svg" viewBox="0 0 379.21 35.47"><title>logo</title><path d="M3.71,11.85c0-2.92,3.13-4.14,6.77-4.86V7c0-2.52-.33-3.52-2.13-3.52A1.79,1.79,0,0,0,6.52,5.05,1.09,1.09,0,0,1,5.44,6.23,1.13,1.13,0,0,1,4.36,5.05c0-1.62,2-2.74,4-2.74,3.06,0,4.32,1.4,4.32,4.64v5.22c0,.83.25,1.26.75,1.26a1.15,1.15,0,0,0,.87-.5l.43.68a2.8,2.8,0,0,1-2.09,1.05,2.05,2.05,0,0,1-2.16-1.95c-1.51,1.44-2.66,2-3.92,2A2.74,2.74,0,0,1,3.71,11.85Zm6.77-.29V8.07c-3,.76-4.32,1.66-4.32,3.56A1.46,1.46,0,0,0,7.6,13.22C8.28,13.22,9,12.93,10.48,11.56Z"/><path d="M23.33,16.24v-.79c1.73,0,2.05-.4,2.05-2.92V11.06c0-1.59-.47-2.67-2.23-2.67-.94,0-2.67.94-2.67,2.45v1.69c0,2.56.18,2.92,1.84,2.92v.79h-6v-.79c1.77,0,2.09-.4,2.09-2.92V11.27c0-2.48-.32-2.91-2.09-2.91V7.6l3.71-.68a8.43,8.43,0,0,1,.4,1.73A4.73,4.73,0,0,1,24,7c2.41,0,3.49,1.7,3.49,4v1.62c0,2.52.29,2.92,2.05,2.92v.79Z"/><path d="M40.07,9.62l1.22-1.23S43,10,42.91,10a5.15,5.15,0,0,1,2.92-.9,5,5,0,0,1,2.88.9l1.62-1.65,1.26,1.22-1.66,1.66a5.06,5.06,0,0,1,0,5.76l1.66,1.65-1.26,1.26-1.62-1.69a5,5,0,0,1-2.88.9,4.86,4.86,0,0,1-2.88-.9l-1.66,1.69-1.22-1.26L41.69,17a5.18,5.18,0,0,1-.9-2.88,5.3,5.3,0,0,1,.9-2.88Zm2.66,4.5a3.08,3.08,0,1,0,3.1-3.1A3.09,3.09,0,0,0,42.73,14.12Z"/><path d="M71.82,16.71a8.43,8.43,0,1,1-8.43-8.42A8.47,8.47,0,0,1,71.82,16.71Zm-15.66,0a7.24,7.24,0,1,0,7.23-7.24A7.23,7.23,0,0,0,56.16,16.71Zm8.6,4.14v.54H59.22v-.54c1.55,0,1.84-.36,1.84-2.34v-3.6c0-2-.29-2.34-1.84-2.34V12h4.89c2.45,0,3.82,1.22,3.82,2.73s-1.37,2.74-3.82,2.74H62.93v1C62.93,20.49,63.21,20.85,64.76,20.85Zm-.65-8H62.93v3.75h1.18a1.72,1.72,0,0,0,1.8-1.88A1.73,1.73,0,0,0,64.11,12.89Z"/><path d="M78,16.67a4.76,4.76,0,0,1-4.93-4.86A5,5,0,0,1,78,7c2.38,0,4.25,1.91,3.6,4.32H75.38c-.28,2.34.72,4.07,3.28,4.07a4.83,4.83,0,0,0,2.84-1.22l.61.75A6,6,0,0,1,78,16.67Zm0-8.46a2.35,2.35,0,0,0-2.41,1.84h4A1.47,1.47,0,0,0,78,8.21Z"/><path d="M90.39,16.24v-.79c1.73,0,2.06-.4,2.06-2.92V11.06c0-1.59-.47-2.67-2.24-2.67-.93,0-2.66.94-2.66,2.45v1.69c0,2.56.18,2.92,1.84,2.92v.79h-6v-.79c1.76,0,2.09-.4,2.09-2.92V11.27c0-2.48-.33-2.91-2.09-2.91V7.6l3.71-.68a8.54,8.54,0,0,1,.39,1.73A4.75,4.75,0,0,1,91,7c2.41,0,3.49,1.7,3.49,4v1.62c0,2.52.29,2.92,2.06,2.92v.79Z"/><path d="M113.51,16.49l-1.34,14.76h-.28l-1.34-14.76,1-7.34-3.31,1.08a1.68,1.68,0,1,1,0-3.28L111.63,8,110.37,4.4a1.7,1.7,0,1,1,3.32,0L112.46,8,115.77,7a1.69,1.69,0,1,1,0,3.28l-3.24-1Z"/><path d="M120.27,16.24v-.79c1.77,0,2.09-.4,2.09-2.92V11.27c0-2.48-.32-2.91-2.09-2.91V7.57l4.14-.65v5.61c0,2.52.29,2.92,2.06,2.92v.79Zm3.1-11.63a1.24,1.24,0,0,1-1.22-1.26,1.25,1.25,0,0,1,1.22-1.26,1.28,1.28,0,0,1,1.26,1.26A1.27,1.27,0,0,1,123.37,4.61Z"/><path d="M140.29,16.24v-.79c1.47,0,1.62-.25,1.62-2.92V11.06c0-1.59-.43-2.67-1.87-2.67a2.76,2.76,0,0,0-2.45,2.45v1.69c0,2.67.11,2.92,1.62,2.92v.79h-5.33v-.79c1.51,0,1.62-.25,1.62-2.92V11.06c0-1.59-.39-2.67-1.83-2.67a2.76,2.76,0,0,0-2.45,2.45v1.69c0,2.56.11,2.92,1.62,2.92v.79h-5.76v-.79c1.76,0,2.09-.4,2.09-2.92V11.27c0-2.48-.33-2.91-2.09-2.91V7.6l3.71-.68a10.13,10.13,0,0,1,.39,1.73A4.67,4.67,0,0,1,134.49,7a2.63,2.63,0,0,1,2.78,1.8A5.06,5.06,0,0,1,140.86,7c2.38,0,3.1,1.66,3.1,4v1.62c0,2.52.32,2.92,2,2.92v.79Z"/><path d="M151.85,16.67a4.77,4.77,0,0,1-4.94-4.86A5,5,0,0,1,151.85,7a3.45,3.45,0,0,1,3.59,4.32h-6.22c-.29,2.34.72,4.07,3.27,4.07a4.83,4.83,0,0,0,2.85-1.22l.61.75A6,6,0,0,1,151.85,16.67Zm0-8.46a2.35,2.35,0,0,0-2.42,1.84h4A1.48,1.48,0,0,0,151.85,8.21Z"/><path d="M187.7,13.72A11.4,11.4,0,1,1,176.32,2.31,11.39,11.39,0,0,1,187.7,13.72Zm-21.64,0A10.26,10.26,0,1,0,176.32,3.46,10.26,10.26,0,0,0,166.06,13.72Zm15.55,7a3.89,3.89,0,0,0-.57-1.58,6,6,0,0,1-4.28,2.12,7.46,7.46,0,0,1-7.31-7.56,7.49,7.49,0,0,1,7.31-7.56A6,6,0,0,1,181,8.29a4.79,4.79,0,0,0,.57-1.59h.62v5.62h-.65c-.61-3-2.34-4.93-4.82-4.93-3.64,0-4.9,3.6-4.9,6.33s1.26,6.34,4.9,6.34c2.48,0,4.21-1.95,4.82-5h.65v5.65Z"/><path d="M193,8c-.54,0-1.41.33-1.41,1.08a1,1,0,0,1-1,1.05,1,1,0,0,1-1-1.05C189.61,7.85,191.3,7,193,7c2.59,0,3.67,1.08,3.67,3.6v4c0,.54.14.87.47.87a.87.87,0,0,0,.72-.51l.54.72a2.49,2.49,0,0,1-1.87.9,1.74,1.74,0,0,1-1.88-1.33,4.68,4.68,0,0,1-3.09,1.4,2.32,2.32,0,0,1-2.52-2.26c0-2.31,2.63-3.28,5.58-3.78C194.65,8.72,194.36,8,193,8Zm1.62,3.53c-2.31.54-3.31,1.19-3.31,2.52a1,1,0,0,0,1,1.12c.5,0,1.15-.22,2.27-1.23Z"/><path d="M215.81,16.71a8.42,8.42,0,1,1-8.42-8.42A8.46,8.46,0,0,1,215.81,16.71Zm-15.65,0a7.24,7.24,0,1,0,7.23-7.24A7.23,7.23,0,0,0,200.16,16.71Zm8.6,4.14v.54h-5.54v-.54c1.54,0,1.83-.36,1.83-2.34v-3.6c0-2-.29-2.34-1.83-2.34V12h4.89c2.45,0,3.82,1.22,3.82,2.73s-1.37,2.74-3.82,2.74h-1.19v1C206.92,20.49,207.21,20.85,208.76,20.85Zm-.65-8h-1.19v3.75h1.19a1.72,1.72,0,0,0,1.8-1.88A1.73,1.73,0,0,0,208.11,12.89Z"/><path d="M220.82,16.67c-1.73,0-2.66-1.87-2.66,0h-.76v-4h.76a2.9,2.9,0,0,0,2.7,2.95,1.3,1.3,0,0,0,1.36-1.37c0-.61-.68-1-1.36-1.33l-1.44-.79a3.11,3.11,0,0,1-1.8-2.7A2.59,2.59,0,0,1,220.35,7c1.87,0,2.23,1.37,2.23,0h.8v3.24h-.8a2,2,0,0,0-2-2.19c-.79,0-1.18.39-1.18,1.11s.54.83,1.47,1.34l1.26.68A3.22,3.22,0,0,1,224,13.76,3,3,0,0,1,220.82,16.67Z"/><path d="M238.71,16.2v3.53A4.86,4.86,0,0,1,233.49,25c-3,0-5.47-1.8-5.47-5.22V16.2c0-2.55-.32-3-2.34-3v-.69h7.09v.69c-2,0-2.34.43-2.34,3v3.71a3.19,3.19,0,0,0,3.42,3.53,3.24,3.24,0,0,0,3.49-3.53V16.2c0-2.55-.29-3-2.3-3v-.69h6v.69C239,13.22,238.71,13.65,238.71,16.2Zm-4.32-6.37-5-2.08c-.28-.15-.82-.54-.82-1.08a1,1,0,0,1,1-1,2.23,2.23,0,0,1,1.59.83l3.38,3.17Z"/><path d="M241.88,16.24v-.79c1.73,0,2-.4,2-2.92V5.87c0-2.52-.29-2.91-2-2.91V2.2l4.1-.72v11c0,2.52.29,2.92,2.06,2.92v.79Z"/><path d="M253.87,16.67a4.76,4.76,0,0,1-4.93-4.86A4.94,4.94,0,0,1,253.87,7a3.46,3.46,0,0,1,3.6,4.32h-6.23c-.29,2.34.72,4.07,3.28,4.07a4.83,4.83,0,0,0,2.84-1.22l.61.75A6,6,0,0,1,253.87,16.67Zm0-8.46a2.35,2.35,0,0,0-2.41,1.84h4A1.48,1.48,0,0,0,253.87,8.21Z"/><path d="M267.58,34.13c-4,0-5.29-3.85-3.27-4s.9,2.81,3.45,2.81c1.41,0,2.52-1.08,2.52-5.61V13.79h-2.91V12.53h2.91V9.08c0-4.9,3-6.77,5.94-6.77,3.78,0,4.54,4,2.38,4-1.73,0-.76-2.77-3.06-2.77-1.84,0-2.7,1.44-2.7,5.58v3.45h3.63v1.26h-3.63V27.33C272.84,32.11,270.28,34.13,267.58,34.13Z"/><path d="M283.24,16.67a5.14,5.14,0,0,1-5.36-4.86,5.37,5.37,0,0,1,10.69,0A5.14,5.14,0,0,1,283.24,16.67Zm0-8.49c-2.09,0-3,1.62-3,3.63s.93,3.6,3,3.6,3-1.62,3-3.6S285.29,8.18,283.24,8.18Z"/><path d="M298,10a1.07,1.07,0,0,1-1-1.08.64.64,0,0,0-.69-.72c-.57,0-1.9.9-1.9,2.92v1.4c0,2.52.28,2.92,2.05,2.92v.79h-6.19v-.79c1.76,0,2.08-.4,2.08-2.92V11.27c0-2.48-.32-2.91-2.08-2.91V7.6l3.7-.68a8.72,8.72,0,0,1,.36,1.65A3.7,3.7,0,0,1,297,7a1.88,1.88,0,0,1,2.16,2A1.11,1.11,0,0,1,298,10Z"/><path d="M316.5,23.8v.72h-8.24V23.8c2.41,0,2.85-.61,2.85-4.21V13.83c0-3.6-.44-4.18-2.85-4.18V8.93h7.45c3.71,0,5.76,1.91,5.76,4.47s-2.05,4.42-5.76,4.42h-2v1.77C313.66,23.19,314.09,23.8,316.5,23.8Zm-.79-13.57h-2v6.26h2a2.81,2.81,0,0,0,3-3.09A2.85,2.85,0,0,0,315.71,10.23Z"/><path d="M328.42,16.67a5.14,5.14,0,0,1-5.36-4.86,5.37,5.37,0,0,1,10.69,0A5.14,5.14,0,0,1,328.42,16.67Zm0-8.49c-2.09,0-3,1.62-3,3.63s.93,3.6,3,3.6,3-1.62,3-3.6S330.47,8.18,328.42,8.18Z"/><path d="M340.62,16.67a4.76,4.76,0,0,1-4.93-4.86A5,5,0,0,1,340.62,7c2.38,0,4.25,1.91,3.6,4.32H338c-.29,2.34.72,4.07,3.27,4.07a4.85,4.85,0,0,0,2.85-1.22l.61.75A6,6,0,0,1,340.62,16.67Zm0-8.46a2.35,2.35,0,0,0-2.41,1.84h4A1.47,1.47,0,0,0,340.62,8.21Z"/><path d="M350.09,16.67c-1.62,0-2.66-.93-2.66-3.06V8.54H346.1V7.67c1.58-.36,2.12-1.4,2.3-3.13h1.12V7.35h2.23V8.54h-2.23v5.07c0,1.15.28,1.8,1,1.8a3,3,0,0,0,1.69-1l.61.61A4.17,4.17,0,0,1,350.09,16.67Z"/><path d="M361.47,10a1.08,1.08,0,0,1-1.05-1.08.64.64,0,0,0-.68-.72c-.58,0-1.91.9-1.91,2.92v1.4c0,2.52.29,2.92,2.05,2.92v.79h-6.19v-.79c1.77,0,2.09-.4,2.09-2.92V11.27c0-2.48-.32-2.91-2.09-2.91V7.6l3.71-.68a8.72,8.72,0,0,1,.36,1.65A3.7,3.7,0,0,1,360.46,7a1.89,1.89,0,0,1,2.16,2A1.12,1.12,0,0,1,361.47,10Z"/><path d="M373.78,15.66l-2.88,3.93v1.22c0,2.56.32,3,2.34,3v.68h-7.13v-.68c2,0,2.34-.47,2.34-3V19.62l-2.88-4c-1.37-1.87-1.94-2.44-3.53-2.44v-.69H369v.69c-1.8,0-2,.57-.9,2l2.23,3.06,2.27-3.06c1.08-1.48.94-2-.9-2v-.69h5.72v.69C375.69,13.22,375.11,13.83,373.78,15.66Zm-5.37-7.27A1.43,1.43,0,0,1,367,9.83,1.42,1.42,0,1,1,367,7,1.42,1.42,0,0,1,368.41,8.39Zm6,0A1.44,1.44,0,0,1,373,9.83a1.42,1.42,0,1,1,1.44-1.44Z"/></svg>