<svg id="Layer_1" data-name="Layer 1" xmlns="http://www.w3.org/2000/svg" viewBox="0 0 379.21 35.47"><title>logo6</title><path d="M23.4,16.17v-.79c1.73,0,2.05-.4,2.05-2.92V11c0-1.59-.47-2.67-2.23-2.67-.94,0-2.67.94-2.67,2.45v1.69c0,2.56.18,2.92,1.84,2.92v.79h-6v-.79c1.76,0,2.08-.4,2.08-2.92V11.2c0-2.48-.32-2.91-2.08-2.91V7.53l3.7-.68a8.43,8.43,0,0,1,.4,1.73,4.73,4.73,0,0,1,3.53-1.7c2.41,0,3.49,1.7,3.49,4v1.62c0,2.52.29,2.92,2.05,2.92v.79Z"/><path d="M40.14,9.55l1.22-1.23S43,9.94,43,9.94A5.15,5.15,0,0,1,45.9,9a5,5,0,0,1,2.88.9L50.4,8.29l1.26,1.22L50,11.17a5.06,5.06,0,0,1,0,5.76l1.66,1.65L50.4,19.84l-1.62-1.69a5,5,0,0,1-2.88.9,4.86,4.86,0,0,1-2.88-.9l-1.66,1.69-1.22-1.26,1.62-1.65a5.18,5.18,0,0,1-.9-2.88,5.3,5.3,0,0,1,.9-2.88Zm2.66,4.5A3.08,3.08,0,1,0,45.9,11,3.09,3.09,0,0,0,42.8,14.05Z"/><path d="M71.89,16.64a8.43,8.43,0,1,1-8.42-8.42A8.47,8.47,0,0,1,71.89,16.64Zm-15.66,0A7.24,7.24,0,1,0,63.47,9.4,7.24,7.24,0,0,0,56.23,16.64Zm8.6,4.14v.54H59.29v-.54c1.55,0,1.84-.36,1.84-2.34v-3.6c0-2-.29-2.34-1.84-2.34V12h4.9C66.63,12,68,13.18,68,14.69s-1.37,2.74-3.81,2.74H63v1C63,20.42,63.29,20.78,64.83,20.78Zm-.64-8H63v3.75h1.19A1.72,1.72,0,0,0,66,14.69,1.73,1.73,0,0,0,64.19,12.82Z"/><path d="M78.08,16.6a4.76,4.76,0,0,1-4.93-4.86,5,5,0,0,1,4.93-4.86c2.38,0,4.25,1.91,3.6,4.32H75.45c-.28,2.34.72,4.07,3.28,4.07a4.8,4.8,0,0,0,2.84-1.22l.62.75A6,6,0,0,1,78.08,16.6Zm0-8.46A2.35,2.35,0,0,0,75.67,10h4A1.47,1.47,0,0,0,78.08,8.14Z"/><path d="M90.46,16.17v-.79c1.73,0,2.06-.4,2.06-2.92V11c0-1.59-.47-2.67-2.24-2.67-.93,0-2.66.94-2.66,2.45v1.69c0,2.56.18,2.92,1.84,2.92v.79h-6v-.79c1.77,0,2.09-.4,2.09-2.92V11.2c0-2.48-.32-2.91-2.09-2.91V7.53l3.71-.68a9.15,9.15,0,0,1,.4,1.73,4.71,4.71,0,0,1,3.52-1.7c2.41,0,3.49,1.7,3.49,4v1.62c0,2.52.29,2.92,2.06,2.92v.79Z"/><path d="M120.35,16.17v-.79c1.76,0,2.08-.4,2.08-2.92V11.2c0-2.48-.32-2.91-2.08-2.91V7.5l4.13-.65v5.61c0,2.52.29,2.92,2.06,2.92v.79Zm3.09-11.63a1.24,1.24,0,0,1-1.22-1.26A1.25,1.25,0,0,1,123.44,2a1.28,1.28,0,0,1,1.26,1.26A1.27,1.27,0,0,1,123.44,4.54Z"/><path d="M140.36,16.17v-.79c1.48,0,1.62-.25,1.62-2.92V11c0-1.59-.43-2.67-1.87-2.67a2.76,2.76,0,0,0-2.45,2.45v1.69c0,2.67.11,2.92,1.62,2.92v.79H134v-.79c1.51,0,1.62-.25,1.62-2.92V11c0-1.59-.39-2.67-1.83-2.67a2.76,2.76,0,0,0-2.45,2.45v1.69c0,2.56.11,2.92,1.62,2.92v.79h-5.76v-.79c1.76,0,2.09-.4,2.09-2.92V11.2c0-2.48-.33-2.91-2.09-2.91V7.53l3.71-.68a10.13,10.13,0,0,1,.39,1.73,4.67,4.67,0,0,1,3.31-1.7,2.63,2.63,0,0,1,2.78,1.8,5.06,5.06,0,0,1,3.6-1.8c2.37,0,3.09,1.66,3.09,4v1.62c0,2.52.33,2.92,2.05,2.92v.79Z"/><path d="M151.92,16.6A4.77,4.77,0,0,1,147,11.74a5,5,0,0,1,4.94-4.86,3.46,3.46,0,0,1,3.6,4.32h-6.23c-.29,2.34.72,4.07,3.27,4.07a4.83,4.83,0,0,0,2.85-1.22l.61.75A6,6,0,0,1,151.92,16.6Zm0-8.46A2.35,2.35,0,0,0,149.5,10h4A1.48,1.48,0,0,0,151.92,8.14Z"/><path d="M193.1,8c-.54,0-1.4.33-1.4,1.08a1,1,0,0,1-1,1.05,1,1,0,0,1-1-1.05c0-1.26,1.69-2.16,3.42-2.16,2.59,0,3.67,1.08,3.67,3.6v4c0,.54.14.87.47.87a.87.87,0,0,0,.72-.51l.54.72a2.49,2.49,0,0,1-1.87.9,1.72,1.72,0,0,1-1.87-1.33,4.72,4.72,0,0,1-3.1,1.4,2.32,2.32,0,0,1-2.52-2.26c0-2.31,2.63-3.28,5.58-3.78C194.72,8.65,194.43,8,193.1,8Zm1.62,3.53c-2.3.54-3.31,1.19-3.31,2.52a1,1,0,0,0,1,1.12c.51,0,1.15-.22,2.27-1.23Z"/><path d="M215.89,16.64a8.43,8.43,0,1,1-8.43-8.42A8.47,8.47,0,0,1,215.89,16.64Zm-15.66,0a7.24,7.24,0,1,0,7.23-7.24A7.23,7.23,0,0,0,200.23,16.64Zm8.6,4.14v.54h-5.54v-.54c1.55,0,1.83-.36,1.83-2.34v-3.6c0-2-.28-2.34-1.83-2.34V12h4.89c2.45,0,3.82,1.22,3.82,2.73s-1.37,2.74-3.82,2.74H207v1C207,20.42,207.28,20.78,208.83,20.78Zm-.65-8H207v3.75h1.19a1.72,1.72,0,0,0,1.8-1.88A1.73,1.73,0,0,0,208.18,12.82Z"/><path d="M220.89,16.6c-1.73,0-2.66-1.87-2.66,0h-.76v-4h.76a2.9,2.9,0,0,0,2.7,2.95,1.3,1.3,0,0,0,1.36-1.37c0-.61-.68-1-1.36-1.33L219.49,12a3.13,3.13,0,0,1-1.8-2.7,2.59,2.59,0,0,1,2.73-2.45c1.87,0,2.23,1.37,2.23,0h.8v3.24h-.8a2,2,0,0,0-2-2.19c-.79,0-1.18.39-1.18,1.11s.54.83,1.47,1.33l1.26.69a3.22,3.22,0,0,1,1.87,2.63A3,3,0,0,1,220.89,16.6Z"/><path d="M238.78,16.13v3.53a4.86,4.86,0,0,1-5.22,5.22c-3,0-5.47-1.8-5.47-5.22V16.13c0-2.55-.32-3-2.34-3v-.69h7.09v.69c-2,0-2.34.43-2.34,3v3.71a3.19,3.19,0,0,0,3.42,3.53,3.24,3.24,0,0,0,3.49-3.53V16.13c0-2.55-.28-3-2.3-3v-.69h6v.69C239.11,13.15,238.78,13.58,238.78,16.13Zm-4.32-6.37-5-2.08c-.28-.15-.82-.54-.82-1.08a1,1,0,0,1,1-1,2.23,2.23,0,0,1,1.59.83l3.38,3.17Z"/><path d="M242,16.17v-.79c1.73,0,2-.4,2-2.92V5.8c0-2.52-.29-2.91-2-2.91V2.13l4.1-.72V12.46c0,2.52.29,2.92,2.06,2.92v.79Z"/><path d="M253.94,16.6A4.76,4.76,0,0,1,249,11.74a4.94,4.94,0,0,1,4.93-4.86,3.45,3.45,0,0,1,3.6,4.32h-6.23c-.29,2.34.72,4.07,3.28,4.07a4.83,4.83,0,0,0,2.84-1.22l.61.75A6,6,0,0,1,253.94,16.6Zm0-8.46A2.35,2.35,0,0,0,251.53,10h4A1.47,1.47,0,0,0,253.94,8.14Z"/><path d="M267.65,34.06c-4,0-5.29-3.85-3.27-4s.9,2.81,3.45,2.81c1.41,0,2.52-1.08,2.52-5.61V13.72h-2.91V12.46h2.91V9c0-4.9,3-6.77,5.94-6.77,3.78,0,4.54,4,2.38,4-1.73,0-.76-2.77-3.06-2.77-1.84,0-2.7,1.44-2.7,5.58v3.45h3.63v1.26h-3.63V27.26C272.91,32,270.35,34.06,267.65,34.06Z"/><path d="M283.31,16.6A5.14,5.14,0,0,1,278,11.74a5.37,5.37,0,0,1,10.69,0A5.14,5.14,0,0,1,283.31,16.6Zm0-8.49c-2.08,0-3,1.62-3,3.63s.94,3.6,3,3.6,3-1.62,3-3.6S285.36,8.11,283.31,8.11Z"/><path d="M298.07,9.94a1.07,1.07,0,0,1-1-1.08.64.64,0,0,0-.69-.72c-.57,0-1.9.9-1.9,2.92v1.4c0,2.52.28,2.92,2.05,2.92v.79H290.3v-.79c1.76,0,2.08-.4,2.08-2.92V11.2c0-2.48-.32-2.91-2.08-2.91V7.53l3.7-.68a8.72,8.72,0,0,1,.36,1.65,3.7,3.7,0,0,1,2.7-1.62,1.88,1.88,0,0,1,2.16,2A1.11,1.11,0,0,1,298.07,9.94Z"/><path d="M328.49,16.6a5.14,5.14,0,0,1-5.36-4.86,5.37,5.37,0,0,1,10.69,0A5.14,5.14,0,0,1,328.49,16.6Zm0-8.49c-2.09,0-3,1.62-3,3.63s.93,3.6,3,3.6,3-1.62,3-3.6S330.54,8.11,328.49,8.11Z"/><path d="M340.69,16.6a4.76,4.76,0,0,1-4.93-4.86,5,5,0,0,1,4.93-4.86c2.38,0,4.25,1.91,3.6,4.32h-6.22c-.29,2.34.72,4.07,3.27,4.07a4.85,4.85,0,0,0,2.85-1.22l.61.75A6,6,0,0,1,340.69,16.6Zm0-8.46A2.35,2.35,0,0,0,338.28,10h4A1.47,1.47,0,0,0,340.69,8.14Z"/><path d="M350.16,16.6c-1.62,0-2.66-.93-2.66-3.06V8.47h-1.33V7.6c1.58-.36,2.12-1.4,2.3-3.13h1.12V7.28h2.23V8.47h-2.23v5.07c0,1.15.28,1.8,1,1.8a3,3,0,0,0,1.69-1l.61.61A4.17,4.17,0,0,1,350.16,16.6Z"/><path d="M361.54,9.94a1.08,1.08,0,0,1-1.05-1.08.63.63,0,0,0-.68-.72c-.58,0-1.91.9-1.91,2.92v1.4c0,2.52.29,2.92,2.05,2.92v.79h-6.19v-.79c1.77,0,2.09-.4,2.09-2.92V11.2c0-2.48-.32-2.91-2.09-2.91V7.53l3.71-.68a8.72,8.72,0,0,1,.36,1.65,3.7,3.7,0,0,1,2.7-1.62,1.89,1.89,0,0,1,2.16,2A1.12,1.12,0,0,1,361.54,9.94Z"/><path d="M373.85,15.59,371,19.52v1.22c0,2.56.32,3,2.34,3v.68h-7.13v-.68c2,0,2.34-.47,2.34-3V19.55l-2.88-4c-1.37-1.87-1.94-2.44-3.53-2.44v-.69h6.95v.69c-1.8,0-2,.57-.9,2l2.23,3.06,2.27-3.06c1.08-1.48.94-2-.9-2v-.69h5.72v.69C375.76,13.15,375.18,13.76,373.85,15.59Zm-5.37-7.27a1.43,1.43,0,0,1-1.4,1.44,1.42,1.42,0,1,1,0-2.84A1.42,1.42,0,0,1,368.48,8.32Zm6,0A1.44,1.44,0,0,1,373,9.76a1.42,1.42,0,1,1,1.44-1.44Z"/><path d="M111.34,16.65,107.7,31.41h-.29L109,16.65l2.19-8-3.16,1a1.27,1.27,0,0,1-1.62-1.51,1.88,1.88,0,0,1,2.12-1.48l2.81,1-.47-3.31a1.88,1.88,0,0,1,1.8-1.87,1.3,1.3,0,0,1,1.15,1.87l-1.73,3.31,3.21-1a1.25,1.25,0,0,1,1.58,1.48,1.89,1.89,0,0,1-2.09,1.51l-2.8-1Z"/><path d="M169.2,14.75a9.52,9.52,0,0,1,9.33-9.63,7.77,7.77,0,0,1,5.66,2.58,3.11,3.11,0,0,0,1-1.73h.61v6.68h-.61c-.85-4-3.19-6.35-6.56-6.35C173.79,6.3,172,11,172,14.75s1.76,8.42,6.63,8.42c3.37,0,5.71-2.43,6.56-6.32h.61v6.69h-.61a3.18,3.18,0,0,0-1-1.74,7.89,7.89,0,0,1-5.66,2.59A9.53,9.53,0,0,1,169.2,14.75Z"/><path d="M308.2,8.74H316a5.21,5.21,0,0,1,.58,10.38V23c0,3.07.37,3.57,2.95,3.57v.64H315V10.09h-2.15V27.25H308.2v-.64c2.58,0,2.95-.5,2.95-3.57V13c0-3.07-.37-3.6-2.95-3.6Z"/><path d="M6.08,19c-.64,1.44-.68,2,1.55,2v.68H1.91V21c1.8,0,2.12-.43,3-2.41L9.32,9.26H10l4.36,9.36c.93,1.94,1.26,2.41,2.88,2.41v.68h-7V21c2.05,0,2.23-.57,1.58-2l-.54-1.16H6.62ZM9,12.9l-1.8,3.85h3.6Z"/></svg>