<svg id="Layer_1" data-name="Layer 1" xmlns="http://www.w3.org/2000/svg" viewBox="0 0 379.21 35.47"><title>logo5</title><path d="M23.36,16.16v-.79c1.73,0,2.06-.39,2.06-2.91V11c0-1.58-.47-2.66-2.23-2.66-.94,0-2.67.93-2.67,2.44v1.7c0,2.55.18,2.91,1.84,2.91v.79h-6v-.79c1.77,0,2.09-.39,2.09-2.91V11.2c0-2.49-.32-2.92-2.09-2.92V7.52l3.71-.68a9.35,9.35,0,0,1,.4,1.73A4.7,4.7,0,0,1,24,6.88c2.41,0,3.49,1.69,3.49,4v1.62c0,2.52.29,2.91,2.06,2.91v.79Z"/><path d="M71.86,16.63a8.43,8.43,0,1,1-8.43-8.42A8.47,8.47,0,0,1,71.86,16.63Zm-15.66,0A7.24,7.24,0,1,0,63.43,9.4,7.24,7.24,0,0,0,56.2,16.63Zm8.6,4.14v.54H59.26v-.54c1.54,0,1.83-.36,1.83-2.34v-3.6c0-2-.29-2.34-1.83-2.34V12h4.89C66.6,12,68,13.18,68,14.69s-1.37,2.73-3.82,2.73H63v1C63,20.41,63.25,20.77,64.8,20.77Zm-.65-7.95H63v3.74h1.19A1.72,1.72,0,0,0,66,14.69,1.73,1.73,0,0,0,64.15,12.82Z"/><path d="M78.05,16.59a4.76,4.76,0,0,1-4.93-4.85,4.94,4.94,0,0,1,4.93-4.86c2.37,0,4.25,1.9,3.6,4.32H75.42c-.29,2.34.72,4.06,3.28,4.06A4.83,4.83,0,0,0,81.54,14l.61.75A6,6,0,0,1,78.05,16.59Zm0-8.45A2.35,2.35,0,0,0,75.64,10h4A1.47,1.47,0,0,0,78.05,8.14Z"/><path d="M90.43,16.16v-.79c1.73,0,2-.39,2-2.91V11c0-1.58-.46-2.66-2.23-2.66-.93,0-2.66.93-2.66,2.44v1.7c0,2.55.18,2.91,1.83,2.91v.79h-6v-.79c1.76,0,2.09-.39,2.09-2.91V11.2c0-2.49-.33-2.92-2.09-2.92V7.52l3.71-.68a9.48,9.48,0,0,1,.39,1.73,4.74,4.74,0,0,1,3.53-1.69c2.41,0,3.49,1.69,3.49,4v1.62c0,2.52.29,2.91,2.05,2.91v.79Z"/><path d="M120.31,16.16v-.79c1.77,0,2.09-.39,2.09-2.91V11.2c0-2.49-.32-2.92-2.09-2.92V7.49l4.14-.65v5.62c0,2.52.29,2.91,2,2.91v.79Zm3.1-11.62a1.26,1.26,0,0,1,0-2.52,1.27,1.27,0,0,1,1.26,1.26A1.28,1.28,0,0,1,123.41,4.54Z"/><path d="M140.33,16.16v-.79c1.47,0,1.62-.25,1.62-2.91V11c0-1.58-.44-2.66-1.88-2.66a2.75,2.75,0,0,0-2.44,2.44v1.7c0,2.66.1,2.91,1.62,2.91v.79h-5.33v-.79c1.51,0,1.62-.25,1.62-2.91V11c0-1.58-.4-2.66-1.84-2.66a2.75,2.75,0,0,0-2.44,2.44v1.7c0,2.55.1,2.91,1.62,2.91v.79h-5.76v-.79c1.76,0,2.08-.39,2.08-2.91V11.2c0-2.49-.32-2.92-2.08-2.92V7.52l3.7-.68a9.33,9.33,0,0,1,.4,1.73,4.66,4.66,0,0,1,3.31-1.69,2.6,2.6,0,0,1,2.77,1.8,5,5,0,0,1,3.6-1.8c2.38,0,3.1,1.65,3.1,4v1.62c0,2.52.32,2.91,2.05,2.91v.79Z"/><path d="M151.88,16.59A4.76,4.76,0,0,1,147,11.74a4.94,4.94,0,0,1,4.93-4.86c2.38,0,4.25,1.9,3.6,4.32h-6.22c-.29,2.34.71,4.06,3.27,4.06A4.8,4.8,0,0,0,155.37,14l.62.75A6,6,0,0,1,151.88,16.59Zm0-8.45A2.35,2.35,0,0,0,149.47,10h4A1.47,1.47,0,0,0,151.88,8.14Z"/><path d="M193.07,8c-.54,0-1.41.32-1.41,1.08a1,1,0,0,1-1,1,1,1,0,0,1-1-1c0-1.26,1.69-2.16,3.42-2.16,2.59,0,3.67,1.08,3.67,3.6v4c0,.54.14.86.47.86a.85.85,0,0,0,.72-.51l.54.73a2.53,2.53,0,0,1-1.88.9,1.73,1.73,0,0,1-1.87-1.34,4.72,4.72,0,0,1-3.09,1.41,2.33,2.33,0,0,1-2.52-2.27c0-2.3,2.62-3.28,5.58-3.78C194.69,8.64,194.4,8,193.07,8Zm1.62,3.52c-2.31.54-3.32,1.19-3.32,2.52a1,1,0,0,0,1,1.12c.5,0,1.15-.22,2.27-1.22Z"/><path d="M215.85,16.63a8.42,8.42,0,1,1-8.42-8.42A8.47,8.47,0,0,1,215.85,16.63Zm-15.66,0a7.24,7.24,0,1,0,7.24-7.23A7.24,7.24,0,0,0,200.19,16.63Zm8.61,4.14v.54h-5.55v-.54c1.55,0,1.84-.36,1.84-2.34v-3.6c0-2-.29-2.34-1.84-2.34V12h4.9c2.45,0,3.81,1.23,3.81,2.74s-1.36,2.73-3.81,2.73H207v1C207,20.41,207.25,20.77,208.8,20.77Zm-.65-7.95H207v3.74h1.19a1.72,1.72,0,0,0,1.8-1.87A1.74,1.74,0,0,0,208.15,12.82Z"/><path d="M220.86,16.59c-1.73,0-2.67-1.87-2.67,0h-.75v-4h.75a2.91,2.91,0,0,0,2.7,3,1.3,1.3,0,0,0,1.37-1.37c0-.61-.68-1-1.37-1.33l-1.44-.8a3.12,3.12,0,0,1-1.8-2.7,2.59,2.59,0,0,1,2.74-2.44c1.87,0,2.23,1.36,2.23,0h.79v3.24h-.79a2,2,0,0,0-2-2.2c-.79,0-1.19.4-1.19,1.12s.54.82,1.48,1.33l1.26.68a3.25,3.25,0,0,1,1.87,2.63A3,3,0,0,1,220.86,16.59Z"/><path d="M238.75,16.13v3.52a4.86,4.86,0,0,1-5.22,5.22c-3,0-5.47-1.8-5.47-5.22V16.13c0-2.56-.33-3-2.34-3v-.68h7.09v.68c-2,0-2.34.43-2.34,3v3.7a3.19,3.19,0,0,0,3.42,3.53,3.24,3.24,0,0,0,3.49-3.53v-3.7c0-2.56-.29-3-2.3-3v-.68h6v.68C239.07,13.14,238.75,13.57,238.75,16.13Zm-4.32-6.37-5-2.09c-.29-.15-.83-.54-.83-1.08a1,1,0,0,1,1-1,2.21,2.21,0,0,1,1.58.83l3.39,3.17Z"/><path d="M241.92,16.16v-.79c1.73,0,2-.39,2-2.91V5.8c0-2.52-.28-2.92-2-2.92V2.12L246,1.4V12.46c0,2.52.29,2.91,2,2.91v.79Z"/><path d="M253.9,16.59A4.76,4.76,0,0,1,249,11.74a4.94,4.94,0,0,1,4.93-4.86c2.38,0,4.25,1.9,3.6,4.32h-6.22c-.29,2.34.72,4.06,3.27,4.06A4.85,4.85,0,0,0,257.4,14l.61.75A6,6,0,0,1,253.9,16.59Zm0-8.45A2.35,2.35,0,0,0,251.49,10h4C255.78,9.22,255.27,8.14,253.9,8.14Z"/><path d="M267.62,34.05c-4,0-5.29-3.85-3.28-4s.9,2.8,3.46,2.8c1.4,0,2.52-1.07,2.52-5.61V13.72H267.4V12.46h2.92V9c0-4.9,3-6.77,5.94-6.77,3.78,0,4.53,4,2.37,4-1.72,0-.75-2.77-3.05-2.77-1.84,0-2.7,1.44-2.7,5.58v3.46h3.63v1.26h-3.63V27.25C272.88,32,270.32,34.05,267.62,34.05Z"/><path d="M283.28,16.59a5.14,5.14,0,0,1-5.36-4.85,5.37,5.37,0,0,1,10.69,0A5.13,5.13,0,0,1,283.28,16.59Zm0-8.49c-2.09,0-3,1.62-3,3.64s.93,3.6,3,3.6,3-1.62,3-3.6S285.33,8.1,283.28,8.1Z"/><path d="M298,9.94A1.08,1.08,0,0,1,297,8.86a.63.63,0,0,0-.68-.72c-.57,0-1.91.9-1.91,2.91v1.41c0,2.52.29,2.91,2.06,2.91v.79h-6.2v-.79c1.77,0,2.09-.39,2.09-2.91V11.2c0-2.49-.32-2.92-2.09-2.92V7.52L294,6.84a8.67,8.67,0,0,1,.36,1.66A3.7,3.7,0,0,1,297,6.88a1.89,1.89,0,0,1,2.16,1.94A1.12,1.12,0,0,1,298,9.94Z"/><path d="M328.46,16.59a5.15,5.15,0,0,1-5.37-4.85,5.37,5.37,0,0,1,10.69,0A5.13,5.13,0,0,1,328.46,16.59Zm0-8.49c-2.09,0-3,1.62-3,3.64s.94,3.6,3,3.6,3-1.62,3-3.6S330.51,8.1,328.46,8.1Z"/><path d="M340.66,16.59a4.76,4.76,0,0,1-4.93-4.85,4.94,4.94,0,0,1,4.93-4.86c2.38,0,4.25,1.9,3.6,4.32H338c-.28,2.34.72,4.06,3.28,4.06A4.83,4.83,0,0,0,344.15,14l.61.75A6,6,0,0,1,340.66,16.59Zm0-8.45A2.35,2.35,0,0,0,338.25,10h4A1.47,1.47,0,0,0,340.66,8.14Z"/><path d="M350.13,16.59c-1.62,0-2.67-.93-2.67-3.05V8.46h-1.33V7.6c1.59-.36,2.13-1.41,2.31-3.14h1.11V7.27h2.23V8.46h-2.23v5.08c0,1.15.29,1.8,1.05,1.8a3,3,0,0,0,1.69-1l.61.62A4.24,4.24,0,0,1,350.13,16.59Z"/><path d="M361.5,9.94a1.08,1.08,0,0,1-1-1.08.63.63,0,0,0-.68-.72c-.58,0-1.91.9-1.91,2.91v1.41c0,2.52.29,2.91,2.05,2.91v.79h-6.19v-.79c1.76,0,2.09-.39,2.09-2.91V11.2c0-2.49-.33-2.92-2.09-2.92V7.52l3.71-.68a10.55,10.55,0,0,1,.36,1.66,3.66,3.66,0,0,1,2.7-1.62,1.89,1.89,0,0,1,2.16,1.94A1.12,1.12,0,0,1,361.5,9.94Z"/><path d="M373.82,15.59l-2.88,3.92v1.22c0,2.56.32,3,2.34,3v.68h-7.13v-.68c2,0,2.34-.47,2.34-3V19.55l-2.88-4c-1.37-1.87-1.95-2.45-3.53-2.45v-.68H369v.68c-1.8,0-2,.58-.9,2l2.23,3.06,2.27-3.06c1.08-1.48.93-2-.9-2v-.68h5.72v.68C375.72,13.14,375.15,13.75,373.82,15.59Zm-5.37-7.27a1.42,1.42,0,1,1-1.4-1.41A1.44,1.44,0,0,1,368.45,8.32Zm6,0A1.43,1.43,0,1,1,373,6.91,1.45,1.45,0,0,1,374.43,8.32Z"/><path d="M111.31,16.64,107.67,31.4h-.29L109,16.64l2.19-8-3.17,1a1.27,1.27,0,0,1-1.62-1.52,1.88,1.88,0,0,1,2.13-1.47l2.81,1-.47-3.32a1.88,1.88,0,0,1,1.8-1.87,1.3,1.3,0,0,1,1.15,1.87l-1.73,3.32,3.2-1a1.24,1.24,0,0,1,1.59,1.47,1.89,1.89,0,0,1-2.09,1.52l-2.81-1Z"/><path d="M169.17,14.74a9.52,9.52,0,0,1,9.33-9.63,7.74,7.74,0,0,1,5.65,2.58,3.07,3.07,0,0,0,1-1.73h.61v6.69h-.61c-.85-4-3.19-6.36-6.57-6.36-4.86,0-6.62,4.69-6.62,8.45s1.76,8.42,6.62,8.42c3.38,0,5.72-2.43,6.57-6.32h.61v6.69h-.61a3.07,3.07,0,0,0-1-1.73,7.86,7.86,0,0,1-5.65,2.58A9.52,9.52,0,0,1,169.17,14.74Z"/><path d="M47.55,17.4c-2.95,0-4.9-3-4.26-6.53s3.62-6.5,6.57-6.5,4.82,2.91,4.19,6.5S50.5,17.4,47.55,17.4ZM49.64,5.47c-2.13,0-3.51,2.42-4,5.4s0,5.43,2.13,5.43,3.55-2.45,4-5.43S51.74,5.47,49.64,5.47Z"/><path d="M308.17,8.73H316a5.21,5.21,0,0,1,.58,10.38V23c0,3.07.37,3.56,2.95,3.56v.64h-4.61V10.08h-2.15V27.24h-4.6V26.6c2.58,0,2.95-.49,2.95-3.56V12.94c0-3.07-.37-3.59-2.95-3.59Z"/><path d="M6.05,19c-.65,1.44-.68,2,1.55,2v.69H1.87V21c1.8,0,2.13-.43,3-2.41L9.29,9.25h.65l4.35,9.36c.94,1.95,1.26,2.41,2.88,2.41v.69H10.23V21c2,0,2.23-.57,1.58-2l-.54-1.15H6.59Zm2.88-6.12-1.8,3.85h3.6Z"/></svg>